<mxfile host="app.diagrams.net" modified="2024-05-30T05:30:36.159Z" agent="Mozilla/5.0 (Windows NT 10.0; Win64; x64) AppleWebKit/537.36 (KHTML, like Gecko) Chrome/125.0.0.0 Safari/537.36" etag="qkPaJCvgAe-6doKMdJTv" version="24.4.10" type="github">
  <diagram name="Page-1" id="gH1QdMIjKO6R1jKwmjfg">
    <mxGraphModel dx="1434" dy="780" grid="1" gridSize="10" guides="1" tooltips="1" connect="1" arrows="1" fold="1" page="1" pageScale="1" pageWidth="827" pageHeight="1169" math="0" shadow="0">
      <root>
        <mxCell id="0" />
        <mxCell id="1" parent="0" />
        <mxCell id="kosduSoWjfbxazBcb3yT-1" value="Home" style="rounded=0;whiteSpace=wrap;html=1;" vertex="1" parent="1">
          <mxGeometry x="30" y="160" width="120" height="60" as="geometry" />
        </mxCell>
        <mxCell id="kosduSoWjfbxazBcb3yT-2" value="Services" style="rounded=0;whiteSpace=wrap;html=1;" vertex="1" parent="1">
          <mxGeometry x="190" y="160" width="120" height="60" as="geometry" />
        </mxCell>
        <mxCell id="kosduSoWjfbxazBcb3yT-3" value="About" style="rounded=0;whiteSpace=wrap;html=1;" vertex="1" parent="1">
          <mxGeometry x="340" y="160" width="120" height="60" as="geometry" />
        </mxCell>
        <mxCell id="kosduSoWjfbxazBcb3yT-4" value="Contact" style="rounded=0;whiteSpace=wrap;html=1;" vertex="1" parent="1">
          <mxGeometry x="480" y="160" width="120" height="60" as="geometry" />
        </mxCell>
        <mxCell id="kosduSoWjfbxazBcb3yT-24" style="edgeStyle=orthogonalEdgeStyle;rounded=0;orthogonalLoop=1;jettySize=auto;html=1;exitX=0;exitY=0.75;exitDx=0;exitDy=0;entryX=0.5;entryY=0;entryDx=0;entryDy=0;" edge="1" parent="1" target="kosduSoWjfbxazBcb3yT-13">
          <mxGeometry relative="1" as="geometry">
            <mxPoint x="640" y="265" as="sourcePoint" />
            <mxPoint x="160" y="460" as="targetPoint" />
            <Array as="points">
              <mxPoint x="640" y="250" />
              <mxPoint x="160" y="250" />
            </Array>
          </mxGeometry>
        </mxCell>
        <mxCell id="kosduSoWjfbxazBcb3yT-25" style="edgeStyle=orthogonalEdgeStyle;rounded=0;orthogonalLoop=1;jettySize=auto;html=1;exitX=0;exitY=0.5;exitDx=0;exitDy=0;entryX=0.5;entryY=0;entryDx=0;entryDy=0;" edge="1" parent="1" source="kosduSoWjfbxazBcb3yT-5" target="kosduSoWjfbxazBcb3yT-14">
          <mxGeometry relative="1" as="geometry" />
        </mxCell>
        <mxCell id="kosduSoWjfbxazBcb3yT-5" value="Blog" style="rounded=0;whiteSpace=wrap;html=1;" vertex="1" parent="1">
          <mxGeometry x="640" y="230" width="120" height="60" as="geometry" />
        </mxCell>
        <mxCell id="kosduSoWjfbxazBcb3yT-9" style="edgeStyle=orthogonalEdgeStyle;rounded=0;orthogonalLoop=1;jettySize=auto;html=1;exitX=0;exitY=0.75;exitDx=0;exitDy=0;entryX=0.442;entryY=0;entryDx=0;entryDy=0;entryPerimeter=0;" edge="1" parent="1" source="kosduSoWjfbxazBcb3yT-7" target="kosduSoWjfbxazBcb3yT-2">
          <mxGeometry relative="1" as="geometry">
            <mxPoint x="230" y="93" as="targetPoint" />
          </mxGeometry>
        </mxCell>
        <mxCell id="kosduSoWjfbxazBcb3yT-11" style="edgeStyle=orthogonalEdgeStyle;rounded=0;orthogonalLoop=1;jettySize=auto;html=1;entryX=0.583;entryY=-0.067;entryDx=0;entryDy=0;entryPerimeter=0;" edge="1" parent="1" source="kosduSoWjfbxazBcb3yT-7" target="kosduSoWjfbxazBcb3yT-5">
          <mxGeometry relative="1" as="geometry">
            <mxPoint x="700" y="65" as="targetPoint" />
          </mxGeometry>
        </mxCell>
        <mxCell id="kosduSoWjfbxazBcb3yT-12" style="edgeStyle=orthogonalEdgeStyle;rounded=0;orthogonalLoop=1;jettySize=auto;html=1;exitX=1;exitY=0.75;exitDx=0;exitDy=0;entryX=0.5;entryY=0;entryDx=0;entryDy=0;" edge="1" parent="1" source="kosduSoWjfbxazBcb3yT-7" target="kosduSoWjfbxazBcb3yT-4">
          <mxGeometry relative="1" as="geometry">
            <mxPoint x="540" y="93" as="targetPoint" />
          </mxGeometry>
        </mxCell>
        <mxCell id="kosduSoWjfbxazBcb3yT-7" value="&lt;b&gt;&lt;font style=&quot;font-size: 30px;&quot;&gt;My Portfolio Website&lt;/font&gt;&lt;/b&gt;" style="rounded=0;whiteSpace=wrap;html=1;" vertex="1" parent="1">
          <mxGeometry x="310" y="10" width="175" height="110" as="geometry" />
        </mxCell>
        <mxCell id="kosduSoWjfbxazBcb3yT-13" value="Blog Page 1" style="rounded=0;whiteSpace=wrap;html=1;" vertex="1" parent="1">
          <mxGeometry x="100" y="470" width="120" height="60" as="geometry" />
        </mxCell>
        <mxCell id="kosduSoWjfbxazBcb3yT-14" value="Blog Page 2" style="rounded=0;whiteSpace=wrap;html=1;" vertex="1" parent="1">
          <mxGeometry x="270" y="470" width="120" height="60" as="geometry" />
        </mxCell>
        <mxCell id="kosduSoWjfbxazBcb3yT-15" value="Blog Page 3" style="rounded=0;whiteSpace=wrap;html=1;" vertex="1" parent="1">
          <mxGeometry x="450" y="470" width="120" height="60" as="geometry" />
        </mxCell>
        <mxCell id="kosduSoWjfbxazBcb3yT-16" value="Blog Page 4" style="rounded=0;whiteSpace=wrap;html=1;" vertex="1" parent="1">
          <mxGeometry x="630" y="470" width="120" height="60" as="geometry" />
        </mxCell>
        <mxCell id="kosduSoWjfbxazBcb3yT-21" style="edgeStyle=orthogonalEdgeStyle;rounded=0;orthogonalLoop=1;jettySize=auto;html=1;exitX=0.5;exitY=1;exitDx=0;exitDy=0;entryX=0.45;entryY=-0.05;entryDx=0;entryDy=0;entryPerimeter=0;" edge="1" parent="1" source="kosduSoWjfbxazBcb3yT-7" target="kosduSoWjfbxazBcb3yT-3">
          <mxGeometry relative="1" as="geometry" />
        </mxCell>
        <mxCell id="kosduSoWjfbxazBcb3yT-22" style="edgeStyle=orthogonalEdgeStyle;rounded=0;orthogonalLoop=1;jettySize=auto;html=1;exitX=0;exitY=0.5;exitDx=0;exitDy=0;entryX=0.433;entryY=-0.033;entryDx=0;entryDy=0;entryPerimeter=0;" edge="1" parent="1" source="kosduSoWjfbxazBcb3yT-7" target="kosduSoWjfbxazBcb3yT-1">
          <mxGeometry relative="1" as="geometry" />
        </mxCell>
        <mxCell id="kosduSoWjfbxazBcb3yT-26" style="edgeStyle=orthogonalEdgeStyle;rounded=0;orthogonalLoop=1;jettySize=auto;html=1;exitX=0;exitY=0.75;exitDx=0;exitDy=0;entryX=0.417;entryY=-0.017;entryDx=0;entryDy=0;entryPerimeter=0;" edge="1" parent="1" source="kosduSoWjfbxazBcb3yT-5" target="kosduSoWjfbxazBcb3yT-15">
          <mxGeometry relative="1" as="geometry" />
        </mxCell>
        <mxCell id="kosduSoWjfbxazBcb3yT-28" style="edgeStyle=orthogonalEdgeStyle;rounded=0;orthogonalLoop=1;jettySize=auto;html=1;exitX=0.5;exitY=1;exitDx=0;exitDy=0;entryX=0.583;entryY=-0.033;entryDx=0;entryDy=0;entryPerimeter=0;" edge="1" parent="1" source="kosduSoWjfbxazBcb3yT-5" target="kosduSoWjfbxazBcb3yT-16">
          <mxGeometry relative="1" as="geometry" />
        </mxCell>
      </root>
    </mxGraphModel>
  </diagram>
</mxfile>
